<?xml version="1.0" encoding="UTF-8"?>
<!DOCTYPE svg PUBLIC "-//W3C//DTD SVG 1.1//EN" "http://www.w3.org/Graphics/SVG/1.1/DTD/svg11.dtd">
<!-- Creator: CorelDRAW X7 -->
<svg xmlns="http://www.w3.org/2000/svg" xml:space="preserve" width="60.5251mm" height="22.4251mm" version="1.1" style="shape-rendering:geometricPrecision; text-rendering:geometricPrecision; image-rendering:optimizeQuality; fill-rule:evenodd; clip-rule:evenodd"
viewBox="0 0 10089 3738"
 xmlns:xlink="http://www.w3.org/1999/xlink">
 <defs>
  <style type="text/css">
   <![CDATA[
    .str0 {stroke:#FEFEFE;stroke-width:33.3382}
    .str1 {stroke:#FEFEFE;stroke-width:12.7018}
    .fil0 {fill:none}
    .fil4 {fill:none;fill-rule:nonzero}
    .fil1 {fill:#FEFEFE}
    .fil2 {fill:#EEEEEF}
    .fil3 {fill:#FEFEFE;fill-rule:nonzero}
   ]]>
  </style>
 </defs>
 <g id="图层_x0020_1">
  <metadata id="CorelCorpID_0Corel-Layer"/>
  <g id="_1473486264560">
   <rect class="fil0 str0" x="17" y="17" width="10056" height="3705"/>
   <rect class="fil1 str0" x="502" y="435" width="2869" height="2869" rx="208" ry="204"/>
   <polygon class="fil2 str0" points="2136,2076 956,1840 2941,697 2933,3024 "/>
   <path class="fil3" d="M4555 2470c-108,0 -210,-9 -305,-27 -96,-18 -186,-45 -269,-80 -83,-37 -161,-81 -233,-135l0 0 194 -209 0 0c85,64 178,112 280,145 102,32 213,48 333,48 160,0 285,-26 374,-79 89,-52 133,-126 133,-222l0 -2c0,-67 -19,-122 -60,-161 -40,-40 -92,-70 -156,-89 -64,-19 -146,-37 -247,-53 -3,-1 -7,-2 -10,-2 -4,0 -7,0 -10,-1l-23 -4c-149,-22 -271,-48 -364,-76 -93,-28 -173,-80 -240,-154 -66,-75 -99,-182 -99,-320l0 -1c0,-121 31,-224 93,-310 61,-85 152,-151 270,-195 118,-45 261,-67 427,-67 80,0 158,7 235,22 77,16 153,39 228,68 75,30 149,68 221,114l0 0 -177 218 0 0c-85,-55 -169,-96 -254,-123 -84,-27 -168,-41 -253,-41 -152,0 -270,26 -354,80 -85,53 -126,128 -126,226l0 2c0,67 21,119 64,158 44,38 98,67 163,85 65,18 155,38 270,57 4,1 8,2 12,2 3,1 7,2 11,3 5,1 11,1 17,2 6,1 11,2 17,3 134,24 247,53 337,86 91,33 166,87 227,160 61,74 91,175 91,304l0 2c0,119 -32,221 -96,306 -65,85 -158,149 -280,193 -122,45 -269,67 -441,67z"/>
   <path id="1" class="fil3" d="M6138 2196l603 0c158,0 274,-26 346,-80 72,-52 108,-127 108,-223l0 -4c0,-66 -13,-123 -38,-170 -26,-48 -68,-84 -124,-110 -56,-25 -128,-38 -215,-38l-680 0 0 -247 680 0c115,0 202,-24 260,-71 59,-48 89,-118 89,-211l0 0c0,-98 -33,-171 -99,-220 -65,-48 -163,-72 -293,-72l-637 0 0 -254 693 0c144,0 265,21 361,64 97,43 170,104 218,183 48,79 72,173 72,282l0 0c0,67 -15,130 -45,189 -29,59 -74,109 -135,150 -61,42 -136,70 -226,84 90,12 167,40 233,84 65,45 115,100 150,166 35,67 52,138 52,216l0 4c0,105 -27,198 -80,279 -53,81 -129,143 -228,187 -99,44 -214,66 -346,66l-719 0 0 -254zm-184 -1700l311 0 0 1954 -311 0 0 -1954z"/>
   <path id="2" class="fil3" d="M8770 2470c-107,0 -209,-9 -305,-27 -96,-18 -186,-45 -269,-80 -83,-37 -161,-81 -233,-135l0 0 194 -209 0 0c85,64 178,112 280,145 102,32 213,48 333,48 161,0 286,-26 374,-79 89,-52 134,-126 134,-222l0 -2c0,-67 -20,-122 -60,-161 -41,-40 -93,-70 -157,-89 -63,-19 -146,-37 -247,-53 -3,-1 -7,-2 -10,-2 -4,0 -7,0 -10,-1l-23 -4c-149,-22 -270,-48 -364,-76 -93,-28 -173,-80 -239,-154 -67,-75 -100,-182 -100,-320l0 -1c0,-121 31,-224 93,-310 61,-85 152,-151 270,-195 119,-45 261,-67 428,-67 79,0 157,7 234,22 78,16 153,39 229,68 74,30 148,68 221,114l0 0 -178 218 0 0c-85,-55 -169,-96 -254,-123 -84,-27 -168,-41 -252,-41 -153,0 -271,26 -355,80 -84,53 -126,128 -126,226l0 2c0,67 21,119 65,158 43,38 97,67 162,85 65,18 155,38 270,57 4,1 8,2 12,2 3,1 7,2 11,3 5,1 11,1 17,2 6,1 11,2 17,3 134,24 247,53 337,86 91,33 166,87 227,160 61,74 91,175 91,304l0 2c0,119 -32,221 -96,306 -65,85 -158,149 -280,193 -122,45 -269,67 -441,67z"/>
   <path id="3" class="fil4 str1" d="M4555 2470c-108,0 -210,-9 -305,-27 -96,-18 -186,-45 -269,-80 -83,-37 -161,-81 -233,-135l0 0 194 -209 0 0c85,64 178,112 280,145 102,32 213,48 333,48 160,0 285,-26 374,-79 89,-52 133,-126 133,-222l0 -2c0,-67 -19,-122 -60,-161 -40,-40 -92,-70 -156,-89 -64,-19 -146,-37 -247,-53 -3,-1 -7,-2 -10,-2 -4,0 -7,0 -10,-1l-23 -4c-149,-22 -271,-48 -364,-76 -93,-28 -173,-80 -240,-154 -66,-75 -99,-182 -99,-320l0 -1c0,-121 31,-224 93,-310 61,-85 152,-151 270,-195 118,-45 261,-67 427,-67 80,0 158,7 235,22 77,16 153,39 228,68 75,30 149,68 221,114l0 0 -177 218 0 0c-85,-55 -169,-96 -254,-123 -84,-27 -168,-41 -253,-41 -152,0 -270,26 -354,80 -85,53 -126,128 -126,226l0 2c0,67 21,119 64,158 44,38 98,67 163,85 65,18 155,38 270,57 4,1 8,2 12,2 3,1 7,2 11,3 5,1 11,1 17,2 6,1 11,2 17,3 134,24 247,53 337,86 91,33 166,87 227,160 61,74 91,175 91,304l0 2c0,119 -32,221 -96,306 -65,85 -158,149 -280,193 -122,45 -269,67 -441,67z"/>
   <path id="4" class="fil4 str1" d="M6138 2196l603 0c158,0 274,-26 346,-80 72,-52 108,-127 108,-223l0 -4c0,-66 -13,-123 -38,-170 -26,-48 -68,-84 -124,-110 -56,-25 -128,-38 -215,-38l-680 0 0 -247 680 0c115,0 202,-24 260,-71 59,-48 89,-118 89,-211l0 0c0,-98 -33,-171 -99,-220 -65,-48 -163,-72 -293,-72l-637 0 0 -254 693 0c144,0 265,21 361,64 97,43 170,104 218,183 48,79 72,173 72,282l0 0c0,67 -15,130 -45,189 -29,59 -74,109 -135,150 -61,42 -136,70 -226,84 90,12 167,40 233,84 65,45 115,100 150,166 35,67 52,138 52,216l0 4c0,105 -27,198 -80,279 -53,81 -129,143 -228,187 -99,44 -214,66 -346,66l-719 0 0 -254zm-184 -1700l311 0 0 1954 -311 0 0 -1954z"/>
   <path id="5" class="fil4 str1" d="M8770 2470c-107,0 -209,-9 -305,-27 -96,-18 -186,-45 -269,-80 -83,-37 -161,-81 -233,-135l0 0 194 -209 0 0c85,64 178,112 280,145 102,32 213,48 333,48 161,0 286,-26 374,-79 89,-52 134,-126 134,-222l0 -2c0,-67 -20,-122 -60,-161 -41,-40 -93,-70 -157,-89 -63,-19 -146,-37 -247,-53 -3,-1 -7,-2 -10,-2 -4,0 -7,0 -10,-1l-23 -4c-149,-22 -270,-48 -364,-76 -93,-28 -173,-80 -239,-154 -67,-75 -100,-182 -100,-320l0 -1c0,-121 31,-224 93,-310 61,-85 152,-151 270,-195 119,-45 261,-67 428,-67 79,0 157,7 234,22 78,16 153,39 229,68 74,30 148,68 221,114l0 0 -178 218 0 0c-85,-55 -169,-96 -254,-123 -84,-27 -168,-41 -252,-41 -153,0 -271,26 -355,80 -84,53 -126,128 -126,226l0 2c0,67 21,119 65,158 43,38 97,67 162,85 65,18 155,38 270,57 4,1 8,2 12,2 3,1 7,2 11,3 5,1 11,1 17,2 6,1 11,2 17,3 134,24 247,53 337,86 91,33 166,87 227,160 61,74 91,175 91,304l0 2c0,119 -32,221 -96,306 -65,85 -158,149 -280,193 -122,45 -269,67 -441,67z"/>
   <path class="fil3" d="M3801 3099l41 -4c2,17 7,31 14,41 7,11 18,20 33,26 15,7 32,10 51,10 17,0 32,-2 45,-7 13,-5 22,-12 28,-21 7,-9 10,-18 10,-28 0,-11 -3,-20 -9,-28 -6,-7 -16,-14 -30,-19 -9,-4 -29,-9 -59,-16 -31,-8 -52,-15 -65,-21 -16,-9 -27,-19 -35,-31 -8,-13 -12,-26 -12,-42 0,-17 5,-32 15,-47 9,-15 23,-26 41,-33 19,-8 39,-12 61,-12 25,0 47,4 66,12 18,8 33,20 43,35 10,16 16,33 16,53l-42 3c-2,-21 -10,-37 -23,-47 -13,-11 -32,-17 -58,-17 -27,0 -46,5 -58,15 -12,10 -18,22 -18,35 0,12 4,22 12,30 9,8 31,16 67,24 36,8 60,15 74,21 19,9 33,20 42,34 10,13 14,29 14,47 0,18 -5,34 -15,50 -10,16 -25,28 -44,36 -19,9 -40,13 -64,13 -30,0 -55,-4 -75,-13 -21,-9 -37,-22 -48,-39 -12,-18 -18,-38 -18,-60z"/>
   <path id="1" class="fil3" d="M4142 2919l0 -46 41 0 0 46 -41 0zm0 287l0 -241 41 0 0 241 -41 0z"/>
   <path id="2" class="fil3" d="M4422 3206l0 -31c-15,24 -37,36 -67,36 -19,0 -37,-5 -53,-16 -16,-10 -29,-25 -38,-44 -8,-19 -13,-41 -13,-66 0,-24 4,-45 12,-65 8,-20 20,-35 36,-45 16,-10 34,-16 54,-16 15,0 28,3 39,10 11,6 20,14 27,24l0 -120 41 0 0 333 -38 0zm-129 -121c0,31 7,54 20,70 13,15 28,22 46,22 18,0 33,-7 45,-21 13,-15 19,-37 19,-67 0,-33 -6,-57 -19,-73 -13,-15 -28,-23 -47,-23 -18,0 -33,8 -46,23 -12,14 -18,38 -18,69z"/>
   <path id="3" class="fil3" d="M4711 3128l43 5c-7,25 -19,44 -37,58 -18,13 -41,20 -69,20 -35,0 -63,-11 -84,-33 -21,-21 -31,-52 -31,-91 0,-40 11,-72 31,-94 21,-22 48,-34 82,-34 32,0 58,11 78,33 21,22 31,53 31,93 0,2 0,6 0,11l-180 0c2,26 9,46 22,60 14,14 31,21 51,21 15,0 28,-3 38,-11 11,-8 19,-21 25,-38zm-134 -66l135 0c-2,-20 -7,-35 -16,-45 -13,-16 -30,-24 -50,-24 -19,0 -35,6 -47,19 -13,12 -20,29 -22,50z"/>
   <path id="4" class="fil3" d="M4827 3206l0 -241 37 0 0 34c17,-27 43,-40 76,-40 15,0 28,3 40,8 12,5 22,12 28,21 6,8 10,18 12,30 2,8 3,21 3,40l0 148 -41 0 0 -147c0,-16 -2,-29 -5,-37 -3,-8 -9,-15 -17,-20 -8,-5 -18,-7 -28,-7 -18,0 -33,5 -45,16 -13,11 -19,32 -19,63l0 132 -41 0z"/>
   <path id="5" class="fil3" d="M5110 3206l0 -333 125 0c26,0 46,3 61,10 16,7 28,17 36,31 9,14 14,29 14,44 0,14 -4,28 -12,40 -8,13 -19,23 -35,31 20,6 36,16 47,30 10,14 16,31 16,50 0,16 -4,30 -10,44 -7,13 -15,24 -25,31 -9,7 -21,13 -36,16 -15,4 -33,6 -54,6l-127 0zm44 -193l72 0c20,0 34,-1 42,-4 12,-3 20,-9 26,-17 5,-7 8,-17 8,-29 0,-11 -2,-21 -8,-29 -5,-8 -13,-14 -22,-17 -10,-3 -27,-5 -51,-5l-67 0 0 101zm0 154l83 0c15,0 25,-1 30,-2 10,-2 19,-5 26,-9 7,-4 12,-10 17,-19 4,-8 6,-17 6,-28 0,-12 -3,-23 -9,-32 -7,-9 -16,-16 -27,-19 -11,-4 -27,-6 -49,-6l-77 0 0 115z"/>
   <path id="6" class="fil3" d="M5437 3299l-5 -38c9,2 17,3 24,3 9,0 16,-1 21,-4 6,-3 10,-7 14,-13 2,-4 7,-14 12,-30 1,-3 2,-6 4,-10l-92 -242 44 0 51 139c6,17 12,36 17,56 5,-19 10,-37 17,-55l51 -140 41 0 -91 245c-10,26 -18,45 -23,55 -7,13 -16,23 -25,29 -10,6 -21,9 -34,9 -8,0 -16,-1 -26,-4z"/>
   <path id="7" class="fil3" d="M5733 3138l41 -6c2,16 8,29 19,37 10,9 25,13 43,13 19,0 33,-4 42,-11 9,-8 14,-17 14,-27 0,-9 -4,-17 -12,-22 -6,-4 -20,-8 -42,-14 -30,-7 -51,-14 -62,-19 -12,-6 -21,-14 -27,-23 -6,-10 -9,-21 -9,-33 0,-10 3,-20 8,-29 5,-10 11,-17 20,-23 6,-5 15,-9 26,-12 11,-3 22,-5 35,-5 19,0 35,3 50,8 14,6 25,13 31,22 7,10 12,22 14,38l-40 6c-1,-13 -7,-23 -15,-30 -9,-7 -21,-10 -37,-10 -19,0 -32,3 -40,9 -8,6 -12,13 -12,22 0,5 1,10 5,14 3,4 8,8 15,11 5,1 16,5 36,10 29,8 49,14 61,19 11,5 20,12 27,22 6,9 10,21 10,35 0,13 -4,26 -12,38 -8,12 -20,21 -35,28 -15,6 -32,10 -51,10 -31,0 -55,-7 -71,-20 -17,-13 -27,-32 -32,-58z"/>
   <path id="8" class="fil3" d="M5980 2919l0 -46 41 0 0 46 -41 0zm0 287l0 -241 41 0 0 241 -41 0z"/>
   <path id="9" class="fil3" d="M6270 3206l0 -31c-15,24 -37,36 -67,36 -19,0 -37,-5 -53,-16 -16,-10 -29,-25 -38,-44 -8,-19 -13,-41 -13,-66 0,-24 4,-45 12,-65 8,-20 20,-35 36,-45 16,-10 34,-16 54,-16 15,0 28,3 39,10 11,6 20,14 27,24l0 -120 41 0 0 333 -38 0zm-129 -121c0,31 7,54 20,70 13,15 28,22 46,22 18,0 33,-7 45,-21 13,-15 19,-37 19,-67 0,-33 -6,-57 -19,-73 -13,-15 -28,-23 -47,-23 -18,0 -33,8 -46,23 -12,14 -18,38 -18,69z"/>
   <path id="10" class="fil3" d="M6583 3137l42 6c-7,24 -19,43 -37,57 -18,13 -41,20 -69,20 -35,0 -63,-11 -84,-32 -20,-22 -31,-52 -31,-92 0,-40 11,-71 32,-94 21,-22 48,-33 81,-33 32,0 58,11 79,33 20,21 30,52 30,92 0,2 0,6 0,11l-180 0c2,26 9,47 23,61 13,14 30,21 50,21 15,0 28,-4 38,-12 11,-8 19,-21 26,-38zm-134 -66l134 0c-2,-20 -7,-35 -15,-45 -13,-16 -30,-24 -51,-24 -19,0 -34,6 -47,19 -13,13 -20,29 -21,50z"/>
   <polygon id="11" class="fil3" points="6845,3206 6845,2873 7085,2873 7085,2912 6889,2912 6889,3014 7073,3014 7073,3053 6889,3053 6889,3167 7093,3167 7093,3206 "/>
   <path id="12" class="fil3" d="M7236 3206l-91 -241 44 0 52 144c5,16 10,32 15,49 4,-13 9,-28 15,-46l54 -147 42 0 -91 241 -40 0z"/>
   <path id="13" class="fil3" d="M7409 3085c0,-44 12,-77 37,-99 21,-18 46,-27 76,-27 33,0 60,11 81,33 21,22 32,52 32,90 0,31 -5,55 -14,73 -9,18 -23,31 -41,41 -17,10 -37,15 -58,15 -34,0 -61,-11 -82,-32 -21,-22 -31,-53 -31,-94zm42 0c0,31 7,54 20,69 14,16 31,23 51,23 20,0 37,-7 51,-23 13,-15 20,-39 20,-70 0,-30 -7,-52 -20,-68 -14,-15 -31,-23 -51,-23 -20,0 -37,8 -51,23 -13,15 -20,38 -20,69z"/>
   <polygon id="14" class="fil3" points="7704,3206 7704,2873 7744,2873 7744,3206 "/>
   <path id="15" class="fil3" d="M7987 3206l0 -36c-19,27 -44,41 -76,41 -15,0 -28,-3 -40,-8 -12,-6 -22,-13 -28,-21 -6,-8 -10,-18 -12,-30 -2,-8 -3,-21 -3,-38l0 -149 41 0 0 133c0,21 1,36 3,43 2,11 8,19 16,25 8,7 19,10 31,10 12,0 24,-3 34,-10 11,-6 19,-15 23,-25 5,-11 7,-27 7,-47l0 -129 41 0 0 241 -37 0z"/>
   <path id="16" class="fil3" d="M8226 3165l6 36c-12,2 -22,3 -31,3 -15,0 -26,-2 -34,-7 -9,-4 -14,-10 -18,-18 -3,-8 -5,-24 -5,-48l0 -140 -30 0 0 -31 30 0 0 -60 41 -24 0 84 41 0 0 31 -41 0 0 142c0,12 1,19 2,22 2,4 4,6 7,8 4,2 8,3 14,3 5,0 11,0 18,-1z"/>
   <path id="17" class="fil3" d="M8330 2933l0 -46 41 0 0 46 -41 0zm0 287l0 -242 41 0 0 242 -41 0z"/>
   <path id="18" class="fil3" d="M8458 3094c0,-44 12,-77 37,-99 21,-17 46,-26 76,-26 33,0 60,11 82,32 21,22 31,52 31,90 0,31 -5,55 -14,73 -9,18 -23,32 -41,42 -17,9 -37,14 -58,14 -34,0 -61,-11 -82,-32 -21,-22 -31,-53 -31,-94zm42 1c0,30 7,54 20,69 14,15 31,23 51,23 21,0 37,-8 51,-23 13,-16 20,-39 20,-71 0,-30 -7,-52 -20,-67 -14,-16 -31,-23 -51,-23 -20,0 -37,7 -51,23 -13,15 -20,38 -20,69z"/>
   <path id="19" class="fil3" d="M8772 3215l0 -241 37 0 0 34c18,-26 43,-39 77,-39 14,0 27,2 40,8 12,5 21,12 27,20 6,9 10,19 13,30 1,8 2,21 2,40l0 148 -41 0 0 -146c0,-17 -2,-30 -5,-38 -3,-8 -9,-15 -17,-20 -8,-4 -17,-7 -28,-7 -17,0 -32,6 -45,17 -13,11 -19,32 -19,62l0 132 -41 0z"/>
   <path id="20" class="fil4 str1" d="M3801 3099l41 -4c2,17 7,31 14,41 7,11 18,20 33,26 15,7 32,10 51,10 17,0 32,-2 45,-7 13,-5 22,-12 28,-21 7,-9 10,-18 10,-28 0,-11 -3,-20 -9,-28 -6,-7 -16,-14 -30,-19 -9,-4 -29,-9 -59,-16 -31,-8 -52,-15 -65,-21 -16,-9 -27,-19 -35,-31 -8,-13 -12,-26 -12,-42 0,-17 5,-32 15,-47 9,-15 23,-26 41,-33 19,-8 39,-12 61,-12 25,0 47,4 66,12 18,8 33,20 43,35 10,16 16,33 16,53l-42 3c-2,-21 -10,-37 -23,-47 -13,-11 -32,-17 -58,-17 -27,0 -46,5 -58,15 -12,10 -18,22 -18,35 0,12 4,22 12,30 9,8 31,16 67,24 36,8 60,15 74,21 19,9 33,20 42,34 10,13 14,29 14,47 0,18 -5,34 -15,50 -10,16 -25,28 -44,36 -19,9 -40,13 -64,13 -30,0 -55,-4 -75,-13 -21,-9 -37,-22 -48,-39 -12,-18 -18,-38 -18,-60z"/>
   <path id="21" class="fil4 str1" d="M4142 2919l0 -46 41 0 0 46 -41 0zm0 287l0 -241 41 0 0 241 -41 0z"/>
   <path id="22" class="fil4 str1" d="M4422 3206l0 -31c-15,24 -37,36 -67,36 -19,0 -37,-5 -53,-16 -16,-10 -29,-25 -38,-44 -8,-19 -13,-41 -13,-66 0,-24 4,-45 12,-65 8,-20 20,-35 36,-45 16,-10 34,-16 54,-16 15,0 28,3 39,10 11,6 20,14 27,24l0 -120 41 0 0 333 -38 0zm-129 -121c0,31 7,54 20,70 13,15 28,22 46,22 18,0 33,-7 45,-21 13,-15 19,-37 19,-67 0,-33 -6,-57 -19,-73 -13,-15 -28,-23 -47,-23 -18,0 -33,8 -46,23 -12,14 -18,38 -18,69z"/>
   <path id="23" class="fil4 str1" d="M4711 3128l43 5c-7,25 -19,44 -37,58 -18,13 -41,20 -69,20 -35,0 -63,-11 -84,-33 -21,-21 -31,-52 -31,-91 0,-40 11,-72 31,-94 21,-22 48,-34 82,-34 32,0 58,11 78,33 21,22 31,53 31,93 0,2 0,6 0,11l-180 0c2,26 9,46 22,60 14,14 31,21 51,21 15,0 28,-3 38,-11 11,-8 19,-21 25,-38zm-134 -66l135 0c-2,-20 -7,-35 -16,-45 -13,-16 -30,-24 -50,-24 -19,0 -35,6 -47,19 -13,12 -20,29 -22,50z"/>
   <path id="24" class="fil4 str1" d="M4827 3206l0 -241 37 0 0 34c17,-27 43,-40 76,-40 15,0 28,3 40,8 12,5 22,12 28,21 6,8 10,18 12,30 2,8 3,21 3,40l0 148 -41 0 0 -147c0,-16 -2,-29 -5,-37 -3,-8 -9,-15 -17,-20 -8,-5 -18,-7 -28,-7 -18,0 -33,5 -45,16 -13,11 -19,32 -19,63l0 132 -41 0z"/>
   <path id="25" class="fil4 str1" d="M5110 3206l0 -333 125 0c26,0 46,3 61,10 16,7 28,17 36,31 9,14 14,29 14,44 0,14 -4,28 -12,40 -8,13 -19,23 -35,31 20,6 36,16 47,30 10,14 16,31 16,50 0,16 -4,30 -10,44 -7,13 -15,24 -25,31 -9,7 -21,13 -36,16 -15,4 -33,6 -54,6l-127 0zm44 -193l72 0c20,0 34,-1 42,-4 12,-3 20,-9 26,-17 5,-7 8,-17 8,-29 0,-11 -2,-21 -8,-29 -5,-8 -13,-14 -22,-17 -10,-3 -27,-5 -51,-5l-67 0 0 101zm0 154l83 0c15,0 25,-1 30,-2 10,-2 19,-5 26,-9 7,-4 12,-10 17,-19 4,-8 6,-17 6,-28 0,-12 -3,-23 -9,-32 -7,-9 -16,-16 -27,-19 -11,-4 -27,-6 -49,-6l-77 0 0 115z"/>
   <path id="26" class="fil4 str1" d="M5437 3299l-5 -38c9,2 17,3 24,3 9,0 16,-1 21,-4 6,-3 10,-7 14,-13 2,-4 7,-14 12,-30 1,-3 2,-6 4,-10l-92 -242 44 0 51 139c6,17 12,36 17,56 5,-19 10,-37 17,-55l51 -140 41 0 -91 245c-10,26 -18,45 -23,55 -7,13 -16,23 -25,29 -10,6 -21,9 -34,9 -8,0 -16,-1 -26,-4z"/>
   <path id="27" class="fil4 str1" d="M5733 3138l41 -6c2,16 8,29 19,37 10,9 25,13 43,13 19,0 33,-4 42,-11 9,-8 14,-17 14,-27 0,-9 -4,-17 -12,-22 -6,-4 -20,-8 -42,-14 -30,-7 -51,-14 -62,-19 -12,-6 -21,-14 -27,-23 -6,-10 -9,-21 -9,-33 0,-10 3,-20 8,-29 5,-10 11,-17 20,-23 6,-5 15,-9 26,-12 11,-3 22,-5 35,-5 19,0 35,3 50,8 14,6 25,13 31,22 7,10 12,22 14,38l-40 6c-1,-13 -7,-23 -15,-30 -9,-7 -21,-10 -37,-10 -19,0 -32,3 -40,9 -8,6 -12,13 -12,22 0,5 1,10 5,14 3,4 8,8 15,11 5,1 16,5 36,10 29,8 49,14 61,19 11,5 20,12 27,22 6,9 10,21 10,35 0,13 -4,26 -12,38 -8,12 -20,21 -35,28 -15,6 -32,10 -51,10 -31,0 -55,-7 -71,-20 -17,-13 -27,-32 -32,-58z"/>
   <path id="28" class="fil4 str1" d="M5980 2919l0 -46 41 0 0 46 -41 0zm0 287l0 -241 41 0 0 241 -41 0z"/>
   <path id="29" class="fil4 str1" d="M6270 3206l0 -31c-15,24 -37,36 -67,36 -19,0 -37,-5 -53,-16 -16,-10 -29,-25 -38,-44 -8,-19 -13,-41 -13,-66 0,-24 4,-45 12,-65 8,-20 20,-35 36,-45 16,-10 34,-16 54,-16 15,0 28,3 39,10 11,6 20,14 27,24l0 -120 41 0 0 333 -38 0zm-129 -121c0,31 7,54 20,70 13,15 28,22 46,22 18,0 33,-7 45,-21 13,-15 19,-37 19,-67 0,-33 -6,-57 -19,-73 -13,-15 -28,-23 -47,-23 -18,0 -33,8 -46,23 -12,14 -18,38 -18,69z"/>
   <path id="30" class="fil4 str1" d="M6583 3137l42 6c-7,24 -19,43 -37,57 -18,13 -41,20 -69,20 -35,0 -63,-11 -84,-32 -20,-22 -31,-52 -31,-92 0,-40 11,-71 32,-94 21,-22 48,-33 81,-33 32,0 58,11 79,33 20,21 30,52 30,92 0,2 0,6 0,11l-180 0c2,26 9,47 23,61 13,14 30,21 50,21 15,0 28,-4 38,-12 11,-8 19,-21 26,-38zm-134 -66l134 0c-2,-20 -7,-35 -15,-45 -13,-16 -30,-24 -51,-24 -19,0 -34,6 -47,19 -13,13 -20,29 -21,50z"/>
   <polygon id="31" class="fil4 str1" points="6845,3206 6845,2873 7085,2873 7085,2912 6889,2912 6889,3014 7073,3014 7073,3053 6889,3053 6889,3167 7093,3167 7093,3206 "/>
   <path id="32" class="fil4 str1" d="M7236 3206l-91 -241 44 0 52 144c5,16 10,32 15,49 4,-13 9,-28 15,-46l54 -147 42 0 -91 241 -40 0z"/>
   <path id="33" class="fil4 str1" d="M7409 3085c0,-44 12,-77 37,-99 21,-18 46,-27 76,-27 33,0 60,11 81,33 21,22 32,52 32,90 0,31 -5,55 -14,73 -9,18 -23,31 -41,41 -17,10 -37,15 -58,15 -34,0 -61,-11 -82,-32 -21,-22 -31,-53 -31,-94zm42 0c0,31 7,54 20,69 14,16 31,23 51,23 20,0 37,-7 51,-23 13,-15 20,-39 20,-70 0,-30 -7,-52 -20,-68 -14,-15 -31,-23 -51,-23 -20,0 -37,8 -51,23 -13,15 -20,38 -20,69z"/>
   <polygon id="34" class="fil4 str1" points="7704,3206 7704,2873 7744,2873 7744,3206 "/>
   <path id="35" class="fil4 str1" d="M7987 3206l0 -36c-19,27 -44,41 -76,41 -15,0 -28,-3 -40,-8 -12,-6 -22,-13 -28,-21 -6,-8 -10,-18 -12,-30 -2,-8 -3,-21 -3,-38l0 -149 41 0 0 133c0,21 1,36 3,43 2,11 8,19 16,25 8,7 19,10 31,10 12,0 24,-3 34,-10 11,-6 19,-15 23,-25 5,-11 7,-27 7,-47l0 -129 41 0 0 241 -37 0z"/>
   <path id="36" class="fil4 str1" d="M8226 3165l6 36c-12,2 -22,3 -31,3 -15,0 -26,-2 -34,-7 -9,-4 -14,-10 -18,-18 -3,-8 -5,-24 -5,-48l0 -140 -30 0 0 -31 30 0 0 -60 41 -24 0 84 41 0 0 31 -41 0 0 142c0,12 1,19 2,22 2,4 4,6 7,8 4,2 8,3 14,3 5,0 11,0 18,-1z"/>
   <path id="37" class="fil4 str1" d="M8330 2933l0 -46 41 0 0 46 -41 0zm0 287l0 -242 41 0 0 242 -41 0z"/>
   <path id="38" class="fil4 str1" d="M8458 3094c0,-44 12,-77 37,-99 21,-17 46,-26 76,-26 33,0 60,11 82,32 21,22 31,52 31,90 0,31 -5,55 -14,73 -9,18 -23,32 -41,42 -17,9 -37,14 -58,14 -34,0 -61,-11 -82,-32 -21,-22 -31,-53 -31,-94zm42 1c0,30 7,54 20,69 14,15 31,23 51,23 21,0 37,-8 51,-23 13,-16 20,-39 20,-71 0,-30 -7,-52 -20,-67 -14,-16 -31,-23 -51,-23 -20,0 -37,7 -51,23 -13,15 -20,38 -20,69z"/>
   <path id="39" class="fil4 str1" d="M8772 3215l0 -241 37 0 0 34c18,-26 43,-39 77,-39 14,0 27,2 40,8 12,5 21,12 27,20 6,9 10,19 13,30 1,8 2,21 2,40l0 148 -41 0 0 -146c0,-17 -2,-30 -5,-38 -3,-8 -9,-15 -17,-20 -8,-4 -17,-7 -28,-7 -17,0 -32,6 -45,17 -13,11 -19,32 -19,62l0 132 -41 0z"/>
  </g>
 </g>
</svg>
